<?xml version="1.0" standalone="no"?>
<!DOCTYPE svg PUBLIC "-//W3C//DTD SVG 20010904//EN"
 "http://www.w3.org/TR/2001/REC-SVG-20010904/DTD/svg10.dtd">
<svg version="1.0" xmlns="http://www.w3.org/2000/svg"
 width="700.000000pt" height="700.000000pt" viewBox="0 0 700.000000 700.000000"
 preserveAspectRatio="xMidYMid meet">
<metadata>
Created by potrace 1.14, written by Peter Selinger 2001-2017
</metadata>
<g transform="translate(0.000000,700.000000) scale(0.100000,-0.100000)"
fill="#000000" stroke="none">
<path d="M3338 6155 c-2 -1 -48 -5 -103 -9 -55 -3 -111 -8 -125 -10 -14 -2
-47 -7 -75 -10 -101 -12 -254 -41 -360 -68 -44 -11 -90 -22 -102 -24 -59 -11
-379 -123 -471 -165 -71 -33 -273 -133 -312 -156 -108 -62 -156 -93 -266 -168
-566 -386 -1023 -953 -1268 -1575 -21 -52 -41 -102 -46 -110 -28 -56 -127
-420 -150 -550 -6 -36 -13 -76 -16 -90 -2 -14 -6 -45 -9 -70 -3 -25 -8 -61
-10 -80 -20 -155 -27 -554 -13 -705 18 -181 29 -258 48 -355 6 -25 12 -56 14
-70 6 -36 53 -223 78 -307 l21 -72 1296 0 c713 0 1320 0 1348 -1 l53 0 -1 -77
c0 -91 2 -108 25 -188 35 -117 101 -218 196 -299 69 -59 122 -89 213 -119 406
-137 828 166 830 596 l0 87 1348 0 1347 0 11 32 c29 92 85 318 97 393 2 11 10
56 18 100 32 181 41 302 41 565 0 251 -6 351 -31 519 -65 441 -216 876 -435
1247 -563 957 -1524 1589 -2614 1719 -27 3 -70 8 -95 11 -44 5 -477 13 -482 9z"/>
</g>
</svg>
